<?xml version="1.0" standalone="no"?>
<!DOCTYPE svg PUBLIC "-//W3C//DTD SVG 20010904//EN"
 "http://www.w3.org/TR/2001/REC-SVG-20010904/DTD/svg10.dtd">
<svg version="1.0" xmlns="http://www.w3.org/2000/svg"
 width="512.000000pt" height="512.000000pt" viewBox="0 0 512.000000 512.000000"
 preserveAspectRatio="xMidYMid meet">
<metadata>
Created by potrace 1.14, written by Peter Selinger 2001-2017
</metadata>
<g transform="translate(0.000000,512.000000) scale(0.100000,-0.100000)"
fill="#000000" stroke="none">
<path d="M1041 4956 c-23 -49 -41 -89 -41 -91 0 -2 -29 -65 -65 -141 -36 -77
-80 -169 -97 -206 -18 -38 -35 -68 -38 -68 -4 0 -18 26 -32 58 -66 145 -81
173 -87 165 -4 -4 -36 -71 -71 -148 -35 -77 -90 -196 -122 -264 -32 -69 -57
-130 -54 -137 3 -7 -2 -10 -13 -7 -16 4 -18 -2 -17 -44 1 -39 5 -49 21 -53 20
-6 20 -15 21 -480 l1 -475 -34 -90 c-106 -279 -234 -445 -357 -461 -74 -9 -72
-98 3 -96 l31 1 0 -488 0 -487 -32 -9 c-40 -12 -64 -51 -54 -88 13 -52 32 -56
269 -57 121 -1 219 -6 222 -11 8 -12 7 -660 0 -667 -13 -13 -49 -16 -237 -19
l-198 -4 -1 -32 c-4 -268 -2 -470 4 -474 6 -4 4679 -7 4965 -4 l42 1 0 255 0
255 -199 0 c-133 0 -202 4 -207 11 -3 6 -15 9 -25 6 -18 -5 -19 2 -19 114 -1
152 -1 342 0 468 l0 99 222 1 c126 1 229 6 240 12 52 28 35 121 -23 134 l-29
7 0 490 0 490 26 -5 c28 -5 64 21 64 46 0 25 -25 47 -56 51 -65 8 -120 48
-194 142 -44 55 -105 172 -161 309 l-33 80 -1 483 c-1 479 -1 483 19 488 18 4
21 13 22 54 0 27 -3 48 -8 47 -4 -1 -66 123 -137 276 -71 153 -132 279 -135
280 -4 1 -30 -49 -58 -110 -29 -62 -55 -113 -58 -113 -6 0 -33 55 -133 270
-22 47 -55 119 -74 160 -20 41 -44 95 -55 120 l-20 45 -12 -30 c-19 -43 -52
-117 -100 -220 -23 -49 -69 -149 -102 -222 -32 -73 -62 -132 -65 -133 -4 0
-13 15 -20 33 -7 17 -32 72 -55 121 l-42 90 -15 -30 c-8 -16 -37 -78 -65 -139
-54 -118 -110 -240 -147 -320 -39 -83 -43 -78 77 -79 59 -1 109 -4 112 -7 3
-3 -29 -6 -72 -6 -42 0 -96 -1 -119 -2 l-43 -1 0 -40 c0 -29 4 -40 15 -40 16
0 16 -2 17 -143 0 -48 -2 -90 -5 -94 -3 -3 -167 -5 -365 -5 -345 0 -360 1
-398 21 -49 27 -99 27 -149 0 -38 -20 -55 -20 -398 -21 -197 0 -361 3 -364 6
-4 4 -7 176 -4 224 1 6 8 12 16 12 11 0 15 11 15 40 l0 40 -42 1 c-24 1 -68 2
-98 1 l-55 -1 45 10 c25 5 66 7 93 5 26 -2 47 -2 47 -1 0 4 -47 110 -91 201
-22 49 -64 139 -91 199 -28 61 -57 123 -65 139 l-15 30 -42 -90 c-23 -49 -48
-104 -55 -121 -7 -18 -16 -33 -20 -33 -3 1 -22 35 -40 78 -48 106 -98 216
-131 287 -15 33 -38 83 -50 110 -13 28 -31 68 -41 89 l-17 39 -41 -87z m504
-846 c3 -5 1 -10 -4 -10 -6 0 -11 5 -11 10 0 6 2 10 4 10 3 0 8 -4 11 -10z
m940 -583 c50 -25 100 -25 150 0 38 19 60 20 398 20 386 0 380 1 369 -52 l-4
-24 -838 0 c-775 1 -839 2 -842 17 -2 9 -2 27 0 38 4 21 5 22 365 21 341 0
364 -1 402 -20z m916 -114 c0 -10 1 -126 2 -258 l2 -240 73 -3 72 -3 0 -39 c0
-22 3 -40 8 -40 4 0 8 -101 8 -225 0 -130 -4 -225 -9 -225 -6 0 -7 -22 -3 -52
12 -88 14 -452 3 -466 -6 -7 -7 -33 -2 -65 9 -65 13 -237 6 -237 -3 0 -96 36
-206 81 -110 44 -279 110 -375 146 -96 35 -184 68 -195 73 -73 32 -315 104
-382 114 -179 26 141 -194 943 -649 l122 -69 0 -321 1 -320 -39 -13 c-57 -17
-1683 -17 -1739 0 l-39 12 0 323 c1 293 2 323 18 328 9 3 25 13 36 23 22 22
156 169 205 227 19 22 36 42 39 45 3 3 55 64 116 135 274 321 454 562 454 607
0 15 -4 18 -22 13 -88 -27 -392 -264 -801 -624 -76 -66 -139 -121 -141 -121
-6 0 0 199 7 206 10 10 9 84 -1 84 -9 0 -6 407 4 462 3 21 3 46 -2 55 -10 24
-12 453 -2 453 4 0 8 18 8 40 l0 40 74 0 74 0 0 228 c0 125 1 242 1 260 l1 32
840 0 c793 0 840 -1 841 -17z m-2806 -543 c-1 -22 1 -40 6 -40 5 0 9 -101 9
-225 0 -124 -3 -225 -7 -225 -5 0 -8 -18 -8 -40 -1 -22 3 -40 7 -40 10 0 11
-434 1 -444 -11 -11 -12 -76 -1 -76 4 0 8 -76 8 -170 l0 -169 -65 0 -65 1 0
46 c-3 457 1 1405 5 1412 3 6 30 10 60 10 l53 0 -3 -40z m4040 31 c4 -7 8
-1065 5 -1428 l0 -33 -65 0 -65 0 0 170 c0 94 3 170 8 170 4 0 7 18 7 40 1 22
-3 40 -7 40 -4 0 -8 99 -8 220 0 121 3 220 8 220 4 0 7 18 7 40 1 22 -3 40 -7
40 -4 0 -8 101 -8 225 0 124 4 225 8 225 5 0 8 18 8 40 l-2 40 53 0 c28 0 54
-4 58 -9z m-4205 -795 l0 -663 -58 -2 -58 -1 1 572 0 573 31 46 c16 25 41 67
54 93 14 25 26 46 27 46 2 0 3 -299 3 -664z m4354 509 c21 -30 21 -35 22 -603
l0 -572 -58 1 -58 2 0 666 0 666 36 -65 c20 -36 46 -78 58 -95z m-4519 -641
l0 -535 -62 2 -63 2 0 496 0 496 34 19 c19 10 45 29 57 42 12 13 25 21 28 18
3 -3 6 -246 6 -540z m4691 474 l24 -11 0 -498 0 -497 -62 2 -63 1 -1 530 c0
292 1 534 4 538 2 4 20 -6 39 -23 20 -18 46 -36 59 -42z"/>
</g>
</svg>
